<svg xmlns="http://www.w3.org/2000/svg" viewBox="0 0 128 128" role="img" aria-label="HelloToo logo">
  <defs>
    <radialGradient id="g" cx="50%" cy="30%" r="70%">
      <stop offset="0%" stop-color="#6ee2ae" />
      <stop offset="100%" stop-color="#1fad67" />
    </radialGradient>
  </defs>
  <circle cx="64" cy="64" r="62" fill="url(#g)" />
  <path fill="#fff" d="M86.6 46.9s-4.4-2.1-10.6 1.3c-7.9 4.1-17.6 11-24.5 18.1-6.8 7-12.3 16.2-12.3 16.2s-1.2 1.7.4 2.6c3.1 1.5 12.8 5.9 20.6 8 5 .1 10.1-.6 14.6-2.2 4.7-1.7 12.5-5.4 15.6-7.3 1.1-.7 1.4-1.6 1.4-2.6 0-.8-.3-2.7-.8-5.1-1.3-5.8-5.6-17.7-10.3-24.7-3.7-5.5-4.2-5.4-5.5-5.9z"/>
  <path fill="#fff" d="M68.8 71.1l6.3-2.9a2.3 2.3 0 0 0 1.2-3.2l-3.9-6.9a2.3 2.3 0 0 0-3.1-1l-6.2 3a2.3 2.3 0 0 0-1 3.1l3.9 6.9a2.3 2.3 0 0 0 3-0.1z"/>
</svg>